<svg xmlns="http://www.w3.org/2000/svg" width="226" height="82" viewBox="0 0 226 82" fill="none"><path d="M28.375 18.125H33.6875V46.125L9.9375 16.5H1.25V18.125H6.25V52.375H1.25V54H14.0625C14.0625 53.0833 13.7292 52.5625 13.0625 52.4375C12.8542 52.3958 12.6458 52.375 12.4375 52.375H8.75V23.4375L33.3125 54.3125L36.1875 53.6875V18.125H41.1875V16.5H28.375V18.125ZM80.125 54C80.125 53.0833 79.7917 52.5625 79.125 52.4375C78.9167 52.3958 78.7083 52.375 78.5 52.375H76.375L62.0625 16.5H59.75L45.75 52.375H41.8125V54H52.9375C52.9375 53.0833 52.6042 52.5625 51.9375 52.4375C51.7292 52.3958 51.5208 52.375 51.3125 52.375H48.25L52.9375 40.25H66L70.6875 52.375H66.625V54H80.125ZM65.3125 38.4375H53.625L59.4375 23.3125L65.3125 38.4375ZM110.5 44.1875C110.5 40.4792 108.5 37.5 104.5 35.25C103.708 34.8333 101.271 33.7292 97.1875 31.9375C93.4792 30.3542 91.1458 28.7292 90.1875 27.0625C89.6875 26.1458 89.4375 25.1667 89.4375 24.125C89.4375 21.3333 90.7917 19.3958 93.5 18.3125C94.6667 17.8542 95.9583 17.625 97.375 17.625C100.875 17.625 103.542 18.8125 105.375 21.1875C106.583 22.8125 107.167 24.7917 107.125 27.125H109V16.1875C108 16.1875 107.417 16.5 107.25 17.125C107.167 17.4167 107.125 17.8125 107.125 18.3125C104.167 16.6875 100.833 15.875 97.125 15.875C92.625 15.875 89.125 17.125 86.625 19.625C84.9583 21.375 84.125 23.4167 84.125 25.75C84.125 29.25 86.0833 32.1042 90 34.3125C90.7083 34.6875 93.0833 35.75 97.125 37.5C100.875 39.1667 103.25 40.8542 104.25 42.5625C104.792 43.5208 105.062 44.5625 105.062 45.6875C105.062 48.6042 103.646 50.7083 100.812 52C99.4792 52.5833 98 52.875 96.375 52.875C90 52.7917 86.4583 48.8958 85.75 41.1875H83.875V54.125C84.875 54.125 85.4583 53.8333 85.625 53.25C85.7083 52.9167 85.75 52.3125 85.75 51.4375C88.9583 53.5625 92.6042 54.625 96.6875 54.625C101.479 54.625 105.188 53.3333 107.812 50.75C109.604 48.9167 110.5 46.7292 110.5 44.1875ZM140 54C140 53.0833 139.667 52.5625 139 52.4375C138.792 52.3958 138.583 52.375 138.375 52.375H134.125V18.125H137.75C141.125 18.125 143.375 20.1667 144.5 24.25C144.5 24.4167 144.521 24.5417 144.562 24.625L145.562 28.8125H147.312L147 16.5H116.125L115.812 28.8125H117.562L118.562 24.625C119.896 20.5417 122.167 18.375 125.375 18.125H128.75V52.375H122.812V54H140ZM174.688 54C174.688 53.0833 174.354 52.5625 173.688 52.4375C173.479 52.3958 173.271 52.375 173.062 52.375H169.688V38.4375L179.125 19.875C180.083 18.75 181.208 18.1667 182.5 18.125C183.417 18.125 183.938 17.7917 184.062 17.125C184.104 16.9167 184.125 16.7083 184.125 16.5H173V18.125H178L168.5 36.3125L158.562 18.125H163.312V16.5H149.188V18.125H152.625L164.375 39.0625V52.375H159.375V54H174.688ZM222.438 54C222.438 53.0833 222.104 52.5625 221.438 52.4375C221.229 52.3958 221.021 52.375 220.812 52.375H218.688L204.375 16.5H202.062L188.062 52.375H184.125V54H195.25C195.25 53.0833 194.917 52.5625 194.25 52.4375C194.042 52.3958 193.833 52.375 193.625 52.375H190.562L195.25 40.25H208.312L213 52.375H208.938V54H222.438ZM207.625 38.4375H195.938L201.75 23.3125L207.625 38.4375Z" fill="url(#paint0_linear_201_440)"></path><path d="M73.3828 60.5469C74.7734 60.5469 75.6719 61.1719 76.0781 62.4219C76.2031 62.8281 76.2656 63.2656 76.2656 63.7344C76.2656 65.7656 75.3594 66.8828 73.5469 67.0859C73.3594 67.1016 73.1719 67.1094 72.9844 67.1094H70.8281V60.5469H73.3828ZM73.1719 74C73.1719 73.6562 73.0469 73.4609 72.7969 73.4141C72.7188 73.3984 72.6406 73.3906 72.5625 73.3906H70.8281V67.7891H72.8906C75.4531 67.7891 77.1484 67.0625 77.9766 65.6094C78.3047 65.0625 78.4688 64.4297 78.4688 63.7109C78.4688 62.1641 77.7969 61.0781 76.4531 60.4531C75.7344 60.1094 74.875 59.9375 73.875 59.9375H66.9375V60.5469H68.8125V73.3906H66.9375V74H73.1719ZM88.3359 74.2344C89.5391 74.2344 90.2031 73.5078 90.3281 72.0547C90.3438 71.9609 90.3516 71.875 90.3516 71.7969L89.7422 71.7734C89.6328 72.9141 89.3281 73.4922 88.8281 73.5078C88.4219 73.4766 88.2109 73.0703 88.1953 72.2891V67.3438C88.1953 65.1094 87.0781 63.9297 84.8438 63.8047C84.7031 63.8047 84.5625 63.8047 84.4219 63.8047C82.6719 63.8047 81.5 64.2109 80.9062 65.0234C80.7188 65.2891 80.625 65.5547 80.625 65.8203C80.625 66.3047 80.8516 66.5859 81.3047 66.6641C81.3828 66.6797 81.4609 66.6875 81.5391 66.6875C81.8984 66.6875 82.1641 66.4609 82.3359 66.0078C82.5547 65.4297 82.7031 65.0859 82.7812 64.9766C83.0781 64.5859 83.5391 64.3906 84.1641 64.3906C85.6328 64.4844 86.3906 65.2891 86.4375 66.8047V68.2812C82.7656 68.2812 80.6641 69.0469 80.1328 70.5781C80.0391 70.875 79.9922 71.1953 79.9922 71.5391C79.9922 72.7266 80.5156 73.5391 81.5625 73.9766C81.9844 74.1484 82.4297 74.2344 82.8984 74.2344C84.0391 74.2344 85 73.8438 85.7812 73.0625C86.0625 72.7656 86.2734 72.4531 86.4141 72.125C86.6016 73.5156 87.2422 74.2188 88.3359 74.2344ZM83.6719 73.2969C82.7188 73.2969 82.1328 72.8203 81.9141 71.8672C81.8672 71.6484 81.8438 71.4062 81.8438 71.1406C81.8438 70.0938 82.4453 69.4297 83.6484 69.1484C84.2891 69.0078 85.2188 68.9297 86.4375 68.9141V70.7891C86.2031 71.8672 85.6328 72.625 84.7266 73.0625C84.3672 73.2188 84.0156 73.2969 83.6719 73.2969ZM96.4219 73.4141H94.7344V68.75C94.7344 67.3281 95.1719 66.1875 96.0469 65.3281C96.3906 65 96.6797 64.8281 96.9141 64.8125C97.1797 64.8125 97.4219 65.0078 97.6406 65.3984C97.8906 65.8359 98.125 66.0859 98.3438 66.1484C98.4375 66.1797 98.5312 66.1953 98.625 66.1953C99.0938 66.1953 99.3906 65.9688 99.5156 65.5156C99.5469 65.4219 99.5625 65.3281 99.5625 65.2344C99.5625 64.5312 99.2031 64.1016 98.4844 63.9453C98.3281 63.9141 98.1797 63.8984 98.0391 63.8984C97.1016 63.8984 96.2656 64.2969 95.5312 65.0938C95.1875 65.4688 94.9141 65.8906 94.7109 66.3594L94.6172 64.0391H91.2188V64.625H92.9766V72.0078C92.9766 72.7266 92.7734 73.1562 92.3672 73.2969C92.1328 73.375 91.75 73.4141 91.2188 73.4141V74H97.0078C97.0078 73.6562 96.8906 73.4688 96.6562 73.4375C96.5938 73.4219 96.5156 73.4141 96.4219 73.4141ZM105.562 73.4141H103.922V64.625H106.617V64.0391H103.922V63.8984C103.922 61.2266 104.32 59.7109 105.117 59.3516C105.289 59.2734 105.477 59.2344 105.68 59.2344C106.164 59.2344 106.57 59.5234 106.898 60.1016C107.18 60.6016 107.383 60.8984 107.508 60.9922C107.633 61.0859 107.773 61.1328 107.93 61.1328C108.445 61.1328 108.75 60.9141 108.844 60.4766C108.859 60.3984 108.867 60.3281 108.867 60.2656C108.867 59.6875 108.477 59.2344 107.695 58.9062C107.242 58.7344 106.734 58.6484 106.172 58.6484C104.703 58.6484 103.609 59.2578 102.891 60.4766C102.406 61.3203 102.164 62.3828 102.164 63.6641V64.0391H100.523V64.625H102.164V72.0078C102.164 72.7266 101.961 73.1562 101.555 73.2969C101.32 73.375 100.938 73.4141 100.406 73.4141V74H106.148C106.148 73.6562 106.031 73.4688 105.797 73.4375C105.734 73.4219 105.656 73.4141 105.562 73.4141ZM118.875 73.4141H117.703V64.0391H114.023V64.625H115.945V69.6875C115.945 71.0938 115.453 72.125 114.469 72.7812C114.031 73.0781 113.578 73.2266 113.109 73.2266C111.828 73.2266 111.086 72.5703 110.883 71.2578C110.852 71.0391 110.836 70.8047 110.836 70.5547V64.0391H107.273V64.625H109.078V70.2031C109.094 72.875 110.211 74.2188 112.43 74.2344C113.602 74.2344 114.562 73.7578 115.312 72.8047C115.594 72.4453 115.82 72.0469 115.992 71.6094L116.156 74H119.461C119.461 73.6562 119.344 73.4688 119.109 73.4375C119.047 73.4219 118.969 73.4141 118.875 73.4141ZM125.367 73.4141H124.312V68.3516C124.359 66.9766 124.836 65.9531 125.742 65.2812C126.164 64.9688 126.586 64.8125 127.008 64.8125C127.789 64.8125 128.328 65.2422 128.625 66.1016C128.75 66.4766 128.812 66.8984 128.812 67.3672V72.0078C128.812 72.7266 128.641 73.1562 128.297 73.2969C128.078 73.375 127.703 73.4141 127.172 73.4141V74H132.211C132.211 73.6562 132.094 73.4688 131.859 73.4375C131.797 73.4219 131.719 73.4141 131.625 73.4141H130.57V67.6016V67.4141C130.82 66.2734 131.375 65.4766 132.234 65.0234C132.562 64.8672 132.875 64.7891 133.172 64.7891C133.969 64.7891 134.531 65.2031 134.859 66.0312C135.016 66.4219 135.094 66.8672 135.094 67.3672V72.0078C135.094 72.7266 134.922 73.1562 134.578 73.2969C134.359 73.375 133.984 73.4141 133.453 73.4141V74H138.633C138.633 73.6562 138.516 73.4688 138.281 73.4375C138.219 73.4219 138.141 73.4141 138.047 73.4141H136.852V67.6016C136.852 65.9922 136.328 64.8672 135.281 64.2266C134.812 63.9453 134.305 63.8047 133.758 63.8047C132.57 63.8047 131.617 64.3594 130.898 65.4688C130.711 65.75 130.555 66.0469 130.43 66.3594C130.148 65.125 129.531 64.3281 128.578 63.9688C128.297 63.8594 128.008 63.8047 127.711 63.8047C126.586 63.8047 125.656 64.2812 124.922 65.2344C124.656 65.5781 124.445 65.9609 124.289 66.3828L124.195 64.0391H120.797V64.625H122.555V72.0078C122.555 72.7266 122.352 73.1562 121.945 73.2969C121.711 73.375 121.328 73.4141 120.797 73.4141V74H125.953C125.953 73.6719 125.836 73.4844 125.602 73.4375C125.523 73.4219 125.445 73.4141 125.367 73.4141ZM145.055 64.3906C146.148 64.3906 146.875 64.8516 147.234 65.7734C147.359 66.0703 147.422 66.3906 147.422 66.7344C147.422 67.5156 147.047 67.9922 146.297 68.1641C145.906 68.2422 145.352 68.2734 144.633 68.2578L142.148 68.1875C142.227 66.3906 142.812 65.2188 143.906 64.6719C144.266 64.4844 144.648 64.3906 145.055 64.3906ZM149.133 71.75L148.547 71.5391C148 72.7266 147.117 73.3984 145.898 73.5547C145.742 73.5703 145.594 73.5781 145.453 73.5781C143.812 73.5781 142.781 72.6016 142.359 70.6484C142.234 70.1016 142.164 69.5 142.148 68.8438L144.961 68.8906C146.867 68.9219 148.094 68.7422 148.641 68.3516C149.062 68.0391 149.273 67.5938 149.273 67.0156C149.273 65.9531 148.734 65.1094 147.656 64.4844C146.891 64.0312 146.008 63.8047 145.008 63.8047C143.055 63.8047 141.656 64.6172 140.812 66.2422C140.375 67.0859 140.156 68.0391 140.156 69.1016C140.156 71.0391 140.852 72.4766 142.242 73.4141C143.07 73.9609 144.016 74.2344 145.078 74.2344C146.766 74.2344 148.008 73.625 148.805 72.4062C148.93 72.1875 149.039 71.9688 149.133 71.75ZM154.547 73.6016C155.625 73.6016 156.352 73.2734 156.727 72.6172C156.867 72.3828 156.938 72.125 156.938 71.8438C156.938 71.1875 156.461 70.625 155.508 70.1562C155.305 70.0469 154.969 69.8906 154.5 69.6875C153.219 69.1562 152.367 68.6562 151.945 68.1875C151.492 67.6719 151.266 67.0703 151.266 66.3828C151.266 65.3047 151.859 64.5469 153.047 64.1094C153.594 63.9062 154.188 63.8047 154.828 63.8047C155.859 63.8047 156.75 64.0234 157.5 64.4609C157.5 64.0078 157.609 63.75 157.828 63.6875C157.922 63.6719 158.023 63.6641 158.133 63.6641V66.5938H157.523C157.492 65.1562 156.695 64.4297 155.133 64.4141C153.961 64.4141 153.234 64.7578 152.953 65.4453C152.875 65.6328 152.836 65.8281 152.836 66.0312C152.836 66.7031 153.32 67.2734 154.289 67.7422C154.508 67.8516 154.852 68 155.32 68.1875C156.586 68.7031 157.43 69.1953 157.852 69.6641C158.305 70.1641 158.531 70.7578 158.531 71.4453C158.531 72.7109 157.859 73.5547 156.516 73.9766C156 74.1484 155.438 74.2344 154.828 74.2344C153.703 74.2188 152.727 73.9375 151.898 73.3906C151.898 73.7969 151.797 74.0312 151.594 74.0938C151.5 74.1094 151.391 74.1172 151.266 74.1172V70.5547H151.922C151.953 72.5703 152.828 73.5859 154.547 73.6016Z" fill="url(#paint1_linear_201_440)"></path><defs><linearGradient id="paint0_linear_201_440" x1="178.192" y1="26" x2="-26.0769" y2="26" gradientUnits="userSpaceOnUse"><stop stop-color="#A76606"></stop><stop offset="1" stop-color="#FFAF22" stop-opacity="0.82"></stop></linearGradient><linearGradient id="paint1_linear_201_440" x1="160" y1="67.3333" x2="66" y2="67.3333" gradientUnits="userSpaceOnUse"><stop stop-color="#A76606"></stop><stop offset="1" stop-color="#FFAF22" stop-opacity="0.82"></stop></linearGradient></defs></svg>